# xmcd CD database file
#
# Track frame offsets:
#	150
#	18467
#	40543
#	61103
#	82064
#	101016
#	125125
#	147634
#	166095
#	182281
#	205477
#
# Disc length: 3163 seconds
#
# Revision: 0
# Processed by: cddbd v1.5.2PL0 Copyright (c) Steve Scherf et al.
# Submitted via: CDex 1.51
#
DISCID=940c590b
DTITLE=Artero - Vaudoo
DYEAR=2009
DGENRE=Jazz
TTITLE0=Estelutsi
TTITLE1=Swamp Atmosphere
TTITLE2=Short Dress Gal
TTITLE3=Papa Limba's March
TTITLE4=Oh What a Strange Doll
TTITLE5=Snake Dance
TTITLE6=Bayou Saint John Reunion
TTITLE7=A Wish To Erzulie
TTITLE8=Alligator's Boogaloo
TTITLE9=Mysterious Marie
TTITLE10=Congo Square Bamboula
EXTD=YEAR: 2009
EXTT0=
EXTT1=
EXTT2=
EXTT3=
EXTT4=
EXTT5=
EXTT6=
EXTT7=
EXTT8=
EXTT9=
EXTT10=
PLAYORDER=
